<svg width="18" height="18" viewBox="0 0 18 18" fill="none" xmlns="http://www.w3.org/2000/svg">
<path d="M12.0128 1.5H5.96025C4.77761 1.50139 3.64383 1.97186 2.80765 2.80818C1.97147 3.6445 1.50119 4.77836 1.5 5.961L1.5 12.0135C1.50139 13.1961 1.97186 14.3299 2.80818 15.1661C3.6445 16.0023 4.77836 16.4726 5.961 16.4738H12.0135C13.1961 16.4724 14.3299 16.0019 15.1661 15.1656C16.0023 14.3293 16.4726 13.1954 16.4738 12.0128V5.96025C16.4724 4.77761 16.0019 3.64383 15.1656 2.80765C14.3293 1.97147 13.1954 1.50119 12.0128 1.5V1.5ZM14.9678 12.0128C14.9678 12.4008 14.8913 12.7851 14.7428 13.1436C14.5943 13.5021 14.3766 13.8279 14.1023 14.1023C13.8279 14.3766 13.5021 14.5943 13.1436 14.7428C12.7851 14.8913 12.4008 14.9678 12.0128 14.9678H5.96025C5.17667 14.9676 4.42524 14.6561 3.87123 14.102C3.31723 13.5478 3.006 12.7963 3.006 12.0128V5.96025C3.0062 5.17667 3.31762 4.42524 3.87176 3.87123C4.42591 3.31723 5.17742 3.006 5.961 3.006H12.0135C12.7971 3.0062 13.5485 3.31762 14.1025 3.87176C14.6565 4.42591 14.9678 5.17742 14.9678 5.961V12.0135V12.0128Z" fill="#828282"/>
<path d="M8.98869 5.11328C7.96226 5.11487 6.97834 5.52337 6.25261 6.24924C5.52689 6.9751 5.11858 7.9591 5.11719 8.98553C5.11838 10.0122 5.5267 10.9965 6.25261 11.7226C6.97852 12.4486 7.96275 12.8571 8.98944 12.8585C10.0163 12.8573 11.0007 12.4489 11.7267 11.7228C12.4528 10.9968 12.8612 10.0123 12.8624 8.98553C12.8608 7.95884 12.4521 6.97469 11.726 6.24893C10.9998 5.52316 10.0154 5.11502 8.98869 5.11403V5.11328ZM8.98869 11.3525C8.36112 11.3525 7.75925 11.1032 7.3155 10.6595C6.87174 10.2157 6.62244 9.61385 6.62244 8.98628C6.62244 8.35871 6.87174 7.75685 7.3155 7.31309C7.75925 6.86933 8.36112 6.62003 8.98869 6.62003C9.61626 6.62003 10.2181 6.86933 10.6619 7.31309C11.1056 7.75685 11.3549 8.35871 11.3549 8.98628C11.3549 9.61385 11.1056 10.2157 10.6619 10.6595C10.2181 11.1032 9.61626 11.3525 8.98869 11.3525Z" fill="#828282"/>
<path d="M12.8692 6.07034C13.3815 6.07034 13.7969 5.65498 13.7969 5.14259C13.7969 4.63021 13.3815 4.21484 12.8692 4.21484C12.3568 4.21484 11.9414 4.63021 11.9414 5.14259C11.9414 5.65498 12.3568 6.07034 12.8692 6.07034Z" fill="#828282"/>
</svg>
