<svg width="14" height="15" viewBox="0 0 14 15" fill="none" xmlns="http://www.w3.org/2000/svg">
<path d="M2.90524 4.49867C3.61014 4.49867 4.18157 3.88642 4.18157 3.13117C4.18157 2.37592 3.61014 1.76367 2.90524 1.76367C2.20034 1.76367 1.62891 2.37592 1.62891 3.13117C1.62891 3.88642 2.20034 4.49867 2.90524 4.49867Z" fill="#828282"/>
<path d="M5.38801 5.53516V13.122H7.58659V9.37016C7.58659 8.38016 7.76042 7.42141 8.90609 7.42141C10.036 7.42141 10.05 8.55328 10.05 9.43265V13.1227H12.2498V8.96203C12.2498 6.91828 11.8391 5.34766 9.60959 5.34766C8.53918 5.34766 7.82167 5.97703 7.52826 6.57266H7.49851V5.53516H5.38801ZM1.80518 5.53516H4.00726V13.122H1.80518V5.53516Z" fill="#828282"/>
</svg>
