<svg width="21" height="21" viewBox="0 0 21 21" fill="none" xmlns="http://www.w3.org/2000/svg">
<path d="M19.6875 10.4435C19.6875 10.3983 19.6875 10.3471 19.6854 10.2876C19.6834 10.1215 19.6793 9.93487 19.6752 9.73594C19.6588 9.16377 19.6301 8.59365 19.585 8.05635C19.5234 7.31602 19.4332 6.69873 19.3102 6.23525C19.1803 5.75158 18.9258 5.31045 18.572 4.95597C18.2183 4.60149 17.7777 4.34607 17.2942 4.21523C16.7139 4.05937 15.5777 3.96299 13.9781 3.90352C13.2173 3.8748 12.4031 3.85635 11.589 3.84609C11.3039 3.84199 11.0394 3.83994 10.8015 3.83789H10.1985C9.96064 3.83994 9.69609 3.84199 9.41103 3.84609C8.59687 3.85635 7.78271 3.8748 7.02187 3.90352C5.42227 3.96504 4.28408 4.06143 3.70576 4.21523C3.22219 4.34575 2.78141 4.60106 2.4276 4.95559C2.07379 5.31012 1.81937 5.75142 1.68984 6.23525C1.56475 6.69873 1.47656 7.31602 1.41504 8.05635C1.36992 8.59365 1.34121 9.16377 1.3248 9.73594C1.31865 9.93487 1.3166 10.1215 1.31455 10.2876C1.31455 10.3471 1.3125 10.3983 1.3125 10.4435V10.5583C1.3125 10.6034 1.3125 10.6547 1.31455 10.7142C1.3166 10.8803 1.3207 11.0669 1.3248 11.2658C1.34121 11.838 1.36992 12.4081 1.41504 12.9454C1.47656 13.6857 1.5668 14.303 1.68984 14.7665C1.95234 15.7488 2.72344 16.524 3.70576 16.7865C4.28408 16.9424 5.42227 17.0388 7.02187 17.0982C7.78271 17.127 8.59687 17.1454 9.41103 17.1557C9.69609 17.1598 9.96064 17.1618 10.1985 17.1639H10.8015C11.0394 17.1618 11.3039 17.1598 11.589 17.1557C12.4031 17.1454 13.2173 17.127 13.9781 17.0982C15.5777 17.0367 16.7159 16.9403 17.2942 16.7865C18.2766 16.524 19.0477 15.7509 19.3102 14.7665C19.4353 14.303 19.5234 13.6857 19.585 12.9454C19.6301 12.4081 19.6588 11.838 19.6752 11.2658C19.6813 11.0669 19.6834 10.8803 19.6854 10.7142C19.6854 10.6547 19.6875 10.6034 19.6875 10.5583V10.4435ZM18.2109 10.5501C18.2109 10.5932 18.2109 10.6403 18.2089 10.6957C18.2068 10.8557 18.2027 11.032 18.1986 11.2228C18.1843 11.7683 18.1556 12.3138 18.1125 12.8203C18.0571 13.4807 17.9792 14.0221 17.8828 14.3851C17.7557 14.8588 17.3824 15.2341 16.9107 15.3592C16.4801 15.474 15.3952 15.5663 13.9207 15.6217C13.1742 15.6504 12.3703 15.6689 11.5685 15.6791C11.2875 15.6832 11.0271 15.6853 10.7933 15.6853H10.2067L9.43154 15.6791C8.62969 15.6689 7.82783 15.6504 7.0793 15.6217C5.60479 15.5643 4.51787 15.474 4.08926 15.3592C3.61758 15.232 3.24434 14.8588 3.11719 14.3851C3.0208 14.0221 2.94287 13.4807 2.8875 12.8203C2.84443 12.3138 2.81777 11.7683 2.80137 11.2228C2.79522 11.032 2.79316 10.8536 2.79111 10.6957C2.79111 10.6403 2.78906 10.5911 2.78906 10.5501V10.4517C2.78906 10.4086 2.78906 10.3614 2.79111 10.3061C2.79316 10.1461 2.79727 9.96973 2.80137 9.77901C2.81572 9.2335 2.84443 8.68799 2.8875 8.18145C2.94287 7.5211 3.0208 6.97969 3.11719 6.6167C3.24434 6.14297 3.61758 5.76768 4.08926 5.64258C4.51992 5.52774 5.60479 5.43545 7.0793 5.38008C7.82578 5.35137 8.62969 5.33291 9.43154 5.32266C9.7125 5.31856 9.97295 5.3165 10.2067 5.3165H10.7933L11.5685 5.32266C12.3703 5.33291 13.1722 5.35137 13.9207 5.38008C15.3952 5.4375 16.4821 5.52774 16.9107 5.64258C17.3824 5.76973 17.7557 6.14297 17.8828 6.6167C17.9792 6.97969 18.0571 7.5211 18.1125 8.18145C18.1556 8.68799 18.1822 9.2335 18.1986 9.77901C18.2048 9.96973 18.2068 10.1481 18.2089 10.3061C18.2089 10.3614 18.2109 10.4106 18.2109 10.4517V10.5501ZM8.6748 13.2489L13.4326 10.4804L8.6748 7.75283V13.2489Z" fill="#828282"/>
</svg>
