<svg width="13" height="13" viewBox="0 0 13 13" fill="none" xmlns="http://www.w3.org/2000/svg">
<g clip-path="url(#clip0_275_28)">
<path d="M0 2.426V10.4226H3.87563C4.22844 10.4233 4.57986 10.3782 4.92104 10.2883C5.2469 10.206 5.55519 10.0654 5.83104 9.87337C6.09642 9.68575 6.31314 9.43746 6.46317 9.14916C6.61808 8.85558 6.69608 8.5062 6.69608 8.10104C6.69608 7.60054 6.57692 7.17425 6.33425 6.81729C6.09267 6.46304 5.72813 6.21441 5.23575 6.07304C5.59758 5.90187 5.86733 5.68141 6.0515 5.41329C6.23458 5.14462 6.32558 4.80825 6.32558 4.40579C6.32558 4.03312 6.26492 3.71895 6.14304 3.46762C6.02584 3.22183 5.84592 3.01127 5.62142 2.85716C5.37579 2.69628 5.10136 2.58445 4.81325 2.52783C4.47011 2.45687 4.12038 2.42273 3.77 2.426H0ZM8.48629 2.96225V3.75145H11.7282V2.96279L8.48629 2.96225ZM1.76096 3.78883H3.40762C3.56363 3.78883 3.71583 3.79966 3.86046 3.82837C4.00833 3.85329 4.13562 3.90095 4.24829 3.9692C4.36204 4.0342 4.45196 4.12737 4.51967 4.24654C4.58521 4.3657 4.61771 4.51954 4.61771 4.70587C4.61771 5.04116 4.51967 5.28545 4.31708 5.43333C4.11233 5.58337 3.8545 5.65758 3.5425 5.65758H1.76042L1.76096 3.78883ZM10.1812 4.46808C9.737 4.46808 9.33671 4.54716 8.97325 4.70425C8.61033 4.86133 8.29833 5.07691 8.03563 5.34991C7.76979 5.62866 7.56339 5.95853 7.42896 6.3195C7.28452 6.70683 7.21201 7.11728 7.215 7.53066C7.215 7.97862 7.28488 8.39191 7.423 8.76566C7.56275 9.13995 7.75883 9.45954 8.01125 9.72983C8.27422 10.0026 8.59318 10.2151 8.94617 10.3527C9.3145 10.4985 9.72508 10.5721 10.1812 10.5721C10.8355 10.5721 11.3967 10.4221 11.8576 10.1209C12.3235 9.82137 12.6647 9.32412 12.89 8.62754H11.4898C11.4357 8.80629 11.2948 8.97908 11.0652 9.13995C10.8323 9.30245 10.5549 9.3837 10.2343 9.3837C9.78792 9.3837 9.44342 9.26616 9.20563 9.03325C8.96675 8.80033 8.81183 8.36754 8.81183 7.90983H12.9897C13.0213 7.47697 12.984 7.04183 12.8792 6.62066C12.7824 6.22473 12.6095 5.85144 12.37 5.52162C12.1332 5.19904 11.8242 4.93637 11.4676 4.75462C11.0993 4.56287 10.6714 4.46808 10.1812 4.46808ZM10.133 5.66895C10.5235 5.66895 10.8442 5.7827 11.0327 5.99125C11.2222 6.2025 11.3615 6.50258 11.3994 6.90775H8.81183C8.82216 6.7782 8.8465 6.65017 8.88442 6.52587C8.92504 6.38179 8.99492 6.24637 9.09783 6.118C9.20075 5.99233 9.33617 5.88508 9.50083 5.79841C9.66875 5.71175 9.87892 5.66895 10.133 5.66895ZM1.76096 6.859H3.67467C4.05383 6.859 4.36204 6.94566 4.59279 7.12116C4.82354 7.29883 4.93946 7.59133 4.93946 8.00354C4.93946 8.2137 4.90588 8.38812 4.83438 8.52137C4.76396 8.65679 4.66646 8.7635 4.54838 8.84095C4.43083 8.9222 4.29108 8.97637 4.13346 9.01104C3.97854 9.0457 3.81387 9.06087 3.64 9.06087H1.76042L1.76096 6.859Z" fill="#9B9B9B"/>
</g>
<defs>
<clipPath id="clip0_275_28">
<rect width="13" height="13" fill="white"/>
</clipPath>
</defs>
</svg>
