<svg width="60" height="118" viewBox="0 0 60 118" fill="none" xmlns="http://www.w3.org/2000/svg">
<path d="M36 58.922L29.2213 65.8437M36 58.922L29.2213 52.0002M36 58.922L9 58.922" stroke="#9B9B9B"/>
<path d="M1.95101 0.0305937C3.25651 0.0715787 4.55146 0.153549 5.83458 0.275245L5.78737 0.77301C7.07715 0.895339 8.35483 1.05812 9.61909 1.26005L9.69795 0.766311C10.987 0.972198 12.2622 1.21846 13.5222 1.50372L13.4118 1.99138C14.6729 2.27688 15.9186 2.60176 17.1476 2.96464L17.2892 2.48511C18.5389 2.85414 19.7715 3.26214 20.9855 3.70768L20.8132 4.17707C22.026 4.62221 23.2202 5.10514 24.394 5.6244L24.5963 5.16713C25.7866 5.69367 26.9563 6.25725 28.1039 6.85637L27.8725 7.2996C29.0162 7.89676 30.1378 8.52953 31.2356 9.1964L31.4952 8.76906C32.6069 9.44433 33.6945 10.1543 34.7563 10.8974L34.4697 11.307C35.5258 12.0461 36.5564 12.8183 37.5597 13.6219L37.8723 13.2317C38.8866 14.0441 39.8733 14.8884 40.8309 15.7632L40.4937 16.1323C41.4448 17.0011 42.3669 17.9001 43.2585 18.8278L43.619 18.4813C44.5187 19.4175 45.3876 20.3826 46.2241 21.3752L45.8417 21.6974C46.6711 22.6815 47.4683 23.6927 48.2317 24.7295L48.6343 24.4331C49.4035 25.4778 50.1388 26.5482 50.8385 27.6428L50.4172 27.9121C51.1096 28.9955 51.767 30.1028 52.3876 31.2324L52.8258 30.9916C53.4497 32.1272 54.0368 33.2852 54.5856 34.4641L54.1323 34.6751C54.6742 35.8392 55.1784 37.0239 55.6434 38.2275L56.1098 38.0473C56.5762 39.2547 57.0035 40.4811 57.39 41.725L56.9126 41.8734C57.2929 43.0972 57.6335 44.3381 57.9329 45.5946L58.4193 45.4787C58.7189 46.7358 58.9775 48.0084 59.1939 49.295L58.7008 49.3779C58.9131 50.6405 59.0842 51.9167 59.2129 53.2053L59.7104 53.1556C59.8384 54.4382 59.9247 55.7328 59.9678 57.038L59.4681 57.0546C59.4893 57.6968 59.5 58.3416 59.5 58.9889C59.5 59.6363 59.4893 60.2812 59.4681 60.9235L59.9678 60.94C59.9247 62.2455 59.8384 63.5403 59.7103 64.823L59.2128 64.7734C59.0842 66.0621 58.913 67.3386 58.7006 68.6014L59.1937 68.6843C58.9774 69.9711 58.7187 71.2439 58.4191 72.5012L57.9327 72.3854C57.6333 73.642 57.2927 74.8831 56.9123 76.1072L57.3898 76.2555C57.0032 77.4996 56.576 78.7262 56.1096 79.9339L55.6432 79.7538C55.1783 80.9576 54.6741 82.1425 54.1322 83.3069L54.5855 83.5178C54.0368 84.6969 53.4497 85.8552 52.8259 86.9911L52.3877 86.7504C51.7671 87.8802 51.1099 88.9878 50.4175 90.0715L50.8388 90.3407C50.1393 91.4357 49.4041 92.5064 48.635 93.5515L48.2323 93.2551C47.469 94.2922 46.672 95.3038 45.8427 96.2883L46.2251 96.6104C45.3888 97.6033 44.52 98.5689 43.6204 99.5054L43.2598 99.1591C42.3684 100.087 41.4464 100.987 40.4954 101.856L40.8327 102.225C39.8752 103.1 38.8886 103.945 37.8745 104.758L37.5618 104.368C36.5585 105.172 35.528 105.944 34.472 106.684L34.7588 107.093C33.697 107.837 32.6095 108.547 31.4979 109.223L31.2381 108.796C30.1403 109.463 29.0188 110.096 27.875 110.694L28.1066 111.137C26.959 111.737 25.7893 112.301 24.599 112.828L24.3966 112.371C23.2227 112.89 22.0285 113.374 20.8156 113.819L20.988 114.289C19.774 114.735 18.5413 115.143 17.2915 115.512L17.1498 115.033C15.9207 115.396 14.6749 115.721 13.4137 116.007L13.5242 116.495C12.264 116.78 10.9886 117.027 9.69942 117.233L9.62048 116.739C8.35606 116.941 7.0782 117.104 5.78824 117.227L5.8355 117.724C4.55219 117.846 3.25704 117.928 1.95134 117.969L1.93564 117.47C1.4585 117.485 0.979934 117.494 0.5 117.498L0.5 116.033L-1.71931e-07 116.033L-5.15794e-07 112.1L0.499999 112.1L0.499999 108.167L-8.59657e-07 108.167L-1.20352e-06 104.233L0.499999 104.233L0.499998 100.3L-1.54738e-06 100.3L-1.89125e-06 96.3667L0.499998 96.3667L0.499998 92.4333L-2.23511e-06 92.4333L-2.57897e-06 88.5L0.499997 88.5L0.499997 84.5667L-2.92283e-06 84.5667L-3.2667e-06 80.6333L0.499997 80.6333L0.499996 76.7L-3.61056e-06 76.7L-3.95442e-06 72.7667L0.499996 72.7667L0.499996 68.8333L-4.29829e-06 68.8333L-4.64215e-06 64.9L0.499995 64.9L0.499995 60.9667L-4.98601e-06 60.9667L-5.32988e-06 57.0333L0.499995 57.0333L0.499994 53.1L-5.67374e-06 53.1L-6.0176e-06 49.1667L0.499994 49.1667L0.499994 45.2333L-6.36146e-06 45.2333L-6.70533e-06 41.3L0.499993 41.3L0.499993 37.3667L-7.04919e-06 37.3667L-7.39305e-06 33.4333L0.499993 33.4333L0.499992 29.5L-7.73692e-06 29.5L-8.08078e-06 25.5667L0.499992 25.5667L0.499992 21.6333L-8.42464e-06 21.6333L-8.76851e-06 17.7L0.499991 17.7L0.499991 13.7667L-9.11237e-06 13.7667L-9.45623e-06 9.83332L0.499991 9.83332L0.49999 5.89999L-9.80009e-06 5.89999L-1.0144e-05 1.96665L0.49999 1.96665L0.49999 0.502029C0.979821 0.505905 1.45829 0.515365 1.93532 0.530342L1.95101 0.0305937Z" stroke="#9B9B9B" stroke-dasharray="4 4"/>
</svg>
