<svg width="13" height="14" viewBox="0 0 13 14" fill="none" xmlns="http://www.w3.org/2000/svg">
<path d="M6.50005 0.333984C3.08105 0.333984 0.30957 3.31865 0.30957 7.00065C0.30957 10.6827 3.08105 13.6673 6.50005 13.6673C9.91905 13.6673 12.6905 10.6827 12.6905 7.00065C12.6905 3.31865 9.91905 0.333984 6.50005 0.333984ZM6.50005 1.29998C7.84864 1.29998 9.07962 1.84332 10.0144 2.73732C9.32755 3.71298 8.28414 4.36265 7.23857 4.80232C6.64668 3.64143 5.98334 2.52449 5.25298 1.45898C5.66145 1.35295 6.08018 1.29958 6.50036 1.29998H6.50005ZM4.24795 1.83998C4.93819 2.95198 5.60676 3.98298 6.21745 5.14998C4.67293 5.58098 2.92752 5.83965 1.31521 5.84398C1.65507 4.06798 2.76286 2.59332 4.24795 1.84032V1.83998ZM10.6015 3.39665C11.3665 4.4033 11.7872 5.66226 11.7935 6.96298C10.569 6.70298 9.35138 6.63498 8.11143 6.76965C7.97214 6.39532 7.80314 6.03965 7.64126 5.65632C8.71005 5.19198 9.85281 4.39732 10.6015 3.39632V3.39665ZM6.64738 6.03198C6.77986 6.33532 6.93338 6.65732 7.07762 6.98632C5.35357 7.80498 3.51964 8.89898 2.56786 10.817C1.65414 9.72807 1.1672 8.3006 1.20905 6.83365C3.05536 6.82432 4.86762 6.57565 6.64738 6.03198ZM9.44486 7.58632C10.2152 7.58649 10.9824 7.69292 11.7276 7.90298C11.6127 8.67506 11.3515 9.41343 10.9603 10.0721C10.5691 10.7309 10.0562 11.2959 9.45352 11.732C9.16938 10.3403 8.89855 9.00865 8.41971 7.66598C8.75909 7.61273 9.10159 7.58599 9.44455 7.58598L9.44486 7.58632ZM11.7551 7.68965C11.7514 7.72232 11.748 7.75432 11.7437 7.78632C11.748 7.75398 11.7517 7.72198 11.7551 7.68965ZM7.44038 7.92632C7.92819 9.28398 8.31107 10.7873 8.56798 12.2503C7.91401 12.5491 7.21075 12.7027 6.50036 12.7017C5.3235 12.7035 4.17994 12.281 3.2519 11.5016C4.2105 9.82698 5.69529 8.55965 7.44007 7.92665L7.44038 7.92632Z" fill="#9B9B9B" stroke="#9B9B9B" stroke-width="0.1"/>
</svg>
