<svg width="13" height="13" viewBox="0 0 13 13" fill="none" xmlns="http://www.w3.org/2000/svg">
<path d="M2.70079 3.89768C3.35534 3.89768 3.88596 3.36706 3.88596 2.71251C3.88596 2.05796 3.35534 1.52734 2.70079 1.52734C2.04624 1.52734 1.51562 2.05796 1.51562 2.71251C1.51562 3.36706 2.04624 3.89768 2.70079 3.89768Z" fill="#9B9B9B"/>
<path d="M5.00367 4.79727V11.3726H7.04521V8.12093C7.04521 7.26293 7.20663 6.43202 8.27046 6.43202C9.31967 6.43202 9.33267 7.41297 9.33267 8.1751V11.3731H11.3753V7.76722C11.3753 5.99597 10.994 4.63477 8.92372 4.63477C7.92976 4.63477 7.26351 5.18022 6.99105 5.69643H6.96342V4.79727H5.00367ZM1.67676 4.79727H3.72155V11.3726H1.67676V4.79727Z" fill="#9B9B9B"/>
</svg>
