<svg width="19" height="19" viewBox="0 0 19 19" fill="none" xmlns="http://www.w3.org/2000/svg">
<path d="M17.8125 9.44717C17.8125 9.40635 17.8125 9.35996 17.8106 9.30616C17.8088 9.15586 17.8051 8.98701 17.8014 8.80703C17.7865 8.28936 17.7605 7.77354 17.7197 7.2874C17.6641 6.61758 17.5824 6.05908 17.4711 5.63975C17.3536 5.20213 17.1233 4.80302 16.8033 4.4823C16.4832 4.16158 16.0845 3.93048 15.6472 3.81211C15.1221 3.67109 14.0941 3.58389 12.6469 3.53008C11.9585 3.5041 11.2219 3.4874 10.4853 3.47812C10.2273 3.47441 9.98799 3.47256 9.77275 3.4707H9.22725C9.01201 3.47256 8.77266 3.47441 8.51475 3.47812C7.77812 3.4874 7.0415 3.5041 6.35313 3.53008C4.90586 3.58574 3.87607 3.67295 3.35283 3.81211C2.91531 3.93019 2.51652 4.16119 2.1964 4.48196C1.87629 4.80272 1.6461 5.20199 1.52891 5.63975C1.41572 6.05908 1.33594 6.61758 1.28027 7.2874C1.23945 7.77354 1.21348 8.28936 1.19863 8.80703C1.19307 8.98701 1.19121 9.15586 1.18936 9.30616C1.18936 9.35996 1.1875 9.40635 1.1875 9.44717V9.55108C1.1875 9.5919 1.1875 9.63828 1.18936 9.69209C1.19121 9.84239 1.19492 10.0112 1.19863 10.1912C1.21348 10.7089 1.23945 11.2247 1.28027 11.7108C1.33594 12.3807 1.41758 12.9392 1.52891 13.3585C1.76641 14.2473 2.46406 14.9486 3.35283 15.1861C3.87607 15.3272 4.90586 15.4144 6.35313 15.4682C7.0415 15.4941 7.77812 15.5108 8.51475 15.5201C8.77266 15.5238 9.01201 15.5257 9.22725 15.5275H9.77275C9.98799 15.5257 10.2273 15.5238 10.4853 15.5201C11.2219 15.5108 11.9585 15.4941 12.6469 15.4682C14.0941 15.4125 15.1239 15.3253 15.6472 15.1861C16.5359 14.9486 17.2336 14.2491 17.4711 13.3585C17.5843 12.9392 17.6641 12.3807 17.7197 11.7108C17.7605 11.2247 17.7865 10.7089 17.8014 10.1912C17.8069 10.0112 17.8088 9.84239 17.8106 9.69209C17.8106 9.63828 17.8125 9.5919 17.8125 9.55108V9.44717ZM16.4766 9.54366C16.4766 9.58262 16.4766 9.6253 16.4747 9.67539C16.4729 9.82012 16.4691 9.97969 16.4654 10.1522C16.4524 10.6458 16.4265 11.1394 16.3875 11.5977C16.3374 12.1951 16.2669 12.685 16.1797 13.0134C16.0646 13.442 15.727 13.7815 15.3002 13.8947C14.9105 13.9986 13.929 14.0821 12.5949 14.1322C11.9195 14.1582 11.1922 14.1749 10.4667 14.1842C10.2125 14.1879 9.97686 14.1898 9.76533 14.1898H9.23467L8.5333 14.1842C7.80781 14.1749 7.08232 14.1582 6.40508 14.1322C5.071 14.0803 4.0876 13.9986 3.6998 13.8947C3.27305 13.7797 2.93535 13.442 2.82031 13.0134C2.73311 12.685 2.6626 12.1951 2.6125 11.5977C2.57354 11.1394 2.54941 10.6458 2.53457 10.1522C2.529 9.97969 2.52715 9.81826 2.52529 9.67539C2.52529 9.6253 2.52344 9.58077 2.52344 9.54366V9.45459C2.52344 9.41563 2.52344 9.37295 2.52529 9.32285C2.52715 9.17813 2.53086 9.01856 2.53457 8.846C2.54756 8.35244 2.57354 7.85889 2.6125 7.40059C2.6626 6.80313 2.73311 6.31328 2.82031 5.98486C2.93535 5.55625 3.27305 5.2167 3.6998 5.10352C4.08945 4.99961 5.071 4.91611 6.40508 4.86602C7.08047 4.84004 7.80781 4.82334 8.5333 4.81406C8.7875 4.81035 9.02314 4.8085 9.23467 4.8085H9.76533L10.4667 4.81406C11.1922 4.82334 11.9177 4.84004 12.5949 4.86602C13.929 4.91797 14.9124 4.99961 15.3002 5.10352C15.727 5.21856 16.0646 5.55625 16.1797 5.98486C16.2669 6.31328 16.3374 6.80313 16.3875 7.40059C16.4265 7.85889 16.4506 8.35244 16.4654 8.846C16.471 9.01856 16.4729 9.17998 16.4747 9.32285C16.4747 9.37295 16.4766 9.41748 16.4766 9.45459V9.54366ZM7.84863 11.9855L12.1533 9.48057L7.84863 7.01279V11.9855Z" fill="#9B9B9B"/>
</svg>
